<svg width="400" height="400" viewBox="0 0 400 400" fill="none" xmlns="http://www.w3.org/2000/svg">
<path d="M68.0346 150C67.6783 145.881 67.4971 141.719 67.4971 137.5C67.5033 61.5625 126.828 0 200.003 0C273.178 0 332.503 61.5625 332.503 137.5C332.503 141.713 332.322 145.881 331.966 150H332.503C332.503 225.144 200.003 400 200.003 400C200.003 400 67.5033 225.556 67.5033 150H68.0346ZM200.003 175C228.435 175.8 252.147 153.431 253.003 125C252.147 96.5688 228.435 74.2 200.003 75C171.572 74.2 147.86 96.5688 147.003 125C147.86 153.431 171.572 175.8 200.003 175Z" fill="#E21B1B"/>
</svg>
